<svg width="320" height="62" viewBox="0 0 320 62" fill="none" xmlns="http://www.w3.org/2000/svg">
<path d="M101.909 12.3793V28.0418H112.269C119.312 28.0418 123.087 26.084 123.087 20.1323C123.087 14.1805 119.341 12.3891 112.356 12.3891L101.909 12.3793ZM88.4668 1.00427H115.088C122.014 1.00427 127.516 2.67169 131.593 6.00652C135.671 9.34466 137.709 13.3386 137.709 19.9561C137.709 26.5737 135.68 31.1257 131.642 34.454C127.604 37.782 121.585 39.4561 115.058 39.4561H101.909V60.2974H88.4668V1.00427Z" fill="black"/>
<path d="M199.625 37.9096C198.932 45.682 196.055 49.1966 191.323 53.7776C186.592 58.359 180.807 61.1294 172.545 61.1294C163.58 61.1294 156.372 59.1716 150.909 53.1808C145.446 47.1896 142.48 39.3683 142.48 29.5691C142.48 20.289 145.241 14.4057 150.753 8.25814C156.264 2.11055 163.873 0.00588085 173.062 0.00588085C179.654 -0.132834 186.064 2.18663 191.05 6.51565C193.456 8.54999 195.426 11.0527 196.842 13.8727C198.257 16.6926 199.087 19.7712 199.283 22.9224H186.505C185.988 19.7196 184.344 16.809 181.871 14.719C179.471 12.8297 176.447 10.9208 172.809 10.9208C169.37 10.8143 166.006 11.9385 163.317 14.0925C160.886 16.0399 159.083 18.6661 158.137 21.6399C157.149 24.5282 156.703 27.575 156.82 30.6265C156.82 36.3531 157.796 40.1514 160.722 43.9493C162.1 45.7856 163.899 47.2615 165.965 48.2531C168.031 49.2448 170.305 49.7226 172.594 49.6468C179.335 49.6468 185.334 45.2513 186.251 37.8999L199.625 37.9096Z" fill="black"/>
<path d="M259.335 1.00427L244.069 28.9328L261.433 60.1504H246.185L233.699 36.7249L231.231 36.6563L218.647 60.1504H203.459L220.91 28.9328L205.381 1.00427H220.676L231.963 22.1685H233.182L244.42 1.00427H259.335Z" fill="black"/>
<path d="M305.495 40.0925C305.495 36.7641 302.334 33.1618 297.213 33.1618H283.635V48.3251H297.291C302.998 48.3251 305.486 44.1256 305.486 40.0925M283.625 23.1864H298.062C304.588 23.1864 309.875 23.6369 313.923 26.975C317.972 30.3131 319.991 33.7687 319.991 40.2687C319.991 46.7686 317.952 51.8491 313.875 55.1875C309.797 58.5256 304.305 60.1896 297.369 60.1504H269.958V1.00427H315.728V12.3793H283.635L283.625 23.1864Z" fill="black"/>
<path d="M64.5688 0.994629H41.001V60.1407H64.5688V0.994629Z" fill="#248341"/>
<path d="M34.8842 0.994629H17.4424V60.1407H34.8842V0.994629Z" fill="#A6CE39"/>
<path d="M11.7839 1.00427H0V60.1504H11.7839V1.00427Z" fill="#FFCB05"/>
<path d="M72.2352 4.4018H72.7813C72.7263 4.77807 72.5437 5.12375 72.2643 5.38075C71.9925 5.61184 71.6452 5.73387 71.2888 5.72337C71.0505 5.73264 70.8132 5.69025 70.5924 5.59904C70.372 5.50778 70.1735 5.36989 70.011 5.19476C69.7018 4.82054 69.5324 4.34963 69.5324 3.86341C69.5324 3.37719 69.7018 2.90629 70.011 2.53207C70.1724 2.35841 70.3691 2.22207 70.5881 2.13247C70.807 2.04287 71.0429 2.0022 71.2791 2.01327C71.6319 2.01468 71.9745 2.13153 72.2546 2.34611C72.5343 2.57975 72.7127 2.91312 72.7522 3.27605H72.2158C72.1769 3.0637 72.0579 2.87443 71.8839 2.74744C71.7059 2.60855 71.4852 2.53588 71.2597 2.54188C71.0994 2.53491 70.9397 2.56479 70.7923 2.62929C70.6453 2.69376 70.5151 2.79109 70.4112 2.91388C70.199 3.19407 70.0951 3.54172 70.1185 3.89279C70.0959 4.24687 70.2073 4.59643 70.4306 4.8717C70.5316 4.9992 70.6607 5.10109 70.8085 5.16912C70.9559 5.23715 71.117 5.2694 71.2791 5.26325C71.5049 5.26926 71.7253 5.19659 71.9037 5.0577C72.0737 4.92186 72.1856 4.72562 72.2158 4.50949M68.7332 3.94172C68.7242 4.2724 68.7817 4.6015 68.9022 4.90935C69.023 5.21716 69.2042 5.49736 69.4357 5.73315C69.8963 6.19463 70.5208 6.4538 71.172 6.4538C71.8231 6.4538 72.4473 6.19463 72.9083 5.73315C73.3545 5.24402 73.6022 4.60492 73.6022 3.94172C73.6022 3.27857 73.3545 2.63943 72.9083 2.1503C72.4477 1.6918 71.8253 1.43451 71.1767 1.43451C70.528 1.43451 69.9057 1.6918 69.4454 2.1503C69.2114 2.38243 69.0273 2.66036 68.9047 2.96684C68.7821 3.27336 68.7238 3.60184 68.7332 3.93194M71.1817 6.94699C70.7851 6.95842 70.3903 6.88885 70.0214 6.74244C69.6525 6.59603 69.3171 6.37588 69.0355 6.09536C68.7501 5.81462 68.5232 5.47956 68.3686 5.10976C68.2136 4.73993 68.1338 4.34284 68.1338 3.94172C68.1338 3.54061 68.2136 3.14352 68.3686 2.77372C68.5232 2.40393 68.7501 2.06883 69.0355 1.78812C69.6119 1.22564 70.3875 0.915782 71.1914 0.926677C71.5876 0.919126 71.9813 0.992438 72.3488 1.14223C72.7159 1.29198 73.0492 1.51505 73.3279 1.7979C73.6177 2.07041 73.8467 2.40152 73.9999 2.76937C74.1527 3.13723 74.2264 3.53345 74.2156 3.93194C74.2267 4.33245 74.1541 4.7309 74.0031 5.10174C73.8517 5.47262 73.6252 5.80768 73.3376 6.08554C73.0568 6.36786 72.7217 6.58981 72.3528 6.73791C71.9839 6.88601 71.5887 6.95717 71.1914 6.94699" fill="#248341"/>
</svg>
