<svg width="217" height="46" viewBox="0 0 217 46" fill="none" xmlns="http://www.w3.org/2000/svg">
<path fill-rule="evenodd" clip-rule="evenodd" d="M54.7768 11.0516C54.0001 12.2749 53.6216 13.7344 53.6992 15.2074L53.7487 15.1679C53.7487 18.5873 55.0617 19.9024 56.9446 19.9024C57.3851 19.9086 57.822 19.8157 58.2263 19.6298C58.6306 19.444 58.9933 19.1693 59.2905 18.824C59.5877 18.4787 59.8127 18.0704 59.9506 17.6261C60.0886 17.1818 60.1364 16.7116 60.0909 16.2463C60.0909 14.3657 59.2362 12.8665 57.2542 12.8665C56.556 12.8867 55.8741 13.0948 55.2723 13.4714C55.3309 12.9573 55.4959 12.4633 55.7554 12.0248C56.1509 11.43 56.7898 11.2489 58.7521 10.6928L58.7566 10.6916L59.1355 10.584C59.2745 10.5445 59.4195 10.5032 59.5706 10.4598V9C59.3996 9.04767 59.2352 9.0931 59.077 9.1366L58.7855 9.21669L58.6208 9.2617L58.6091 9.26497C56.3714 9.87766 55.5209 10.1105 54.7768 11.0516ZM57.0065 14.1289C58.2081 14.1289 58.5673 15.1942 58.5673 16.3515H58.5797C58.5797 17.6141 58.0099 18.6398 56.9322 18.6398C55.8545 18.6398 55.2104 17.5878 55.2104 15.2863V14.7076C55.7541 14.3585 56.3717 14.1595 57.0065 14.1289Z" fill="#231F20"/>
<path d="M38.4754 9.74336H40.0431V14.0691H40.0688L43.551 9.74336H45.3885L41.3923 14.5887L45.6069 19.6549H43.7052L40.0688 15.2512H40.0431V19.6549H38.4754V9.74336Z" fill="#231F20"/>
<path d="M50.373 19.8961C49.367 22.7476 48.2603 23.1235 47.0531 23.1235C46.5559 23.1312 46.0629 23.0296 45.6069 22.8254L45.9842 21.5292C46.2954 21.6951 46.6399 21.7839 46.9902 21.7884C47.8076 21.7884 48.4615 21.2181 49.0023 19.5072L45.9213 12.469H47.5435L49.6939 17.6537L51.3916 12.469H52.9761L50.373 19.8961Z" fill="#231F20"/>
<path fill-rule="evenodd" clip-rule="evenodd" d="M65.4919 19.0093C64.9683 19.5694 64.2571 19.8889 63.5123 19.8988C63.2285 19.9166 62.9443 19.873 62.677 19.7707C62.4096 19.6684 62.1649 19.5096 61.9576 19.3039C61.7503 19.0983 61.5849 18.85 61.4714 18.5745C61.3579 18.2989 61.2988 18.0018 61.2976 17.7012C61.2828 17.2936 61.3831 16.8905 61.5858 16.5434C61.7886 16.1962 62.0845 15.9208 62.4359 15.7523C62.982 15.5012 63.5726 15.3763 64.168 15.386H65.4053V15.0851C65.4053 14.1433 64.8485 13.7771 64.0443 13.7771C63.4113 13.7798 62.7909 13.9652 62.2503 14.3134L61.7306 13.267C62.491 12.7712 63.3616 12.4959 64.2546 12.469C65.9373 12.469 66.8776 13.2931 66.8776 15.0851V17.7012C66.846 18.3799 66.8875 19.06 67.0013 19.7287H65.7146L65.4919 19.0093ZM64.366 16.3932C63.9909 16.3834 63.6185 16.4639 63.2772 16.6287C63.1264 16.7203 63.0026 16.8545 62.9196 17.0161C62.8366 17.1778 62.7976 17.3606 62.807 17.5443C62.801 17.6959 62.8259 17.8472 62.8799 17.9878C62.934 18.1285 63.016 18.2551 63.1205 18.3593C63.2249 18.4635 63.3492 18.5428 63.4852 18.5917C63.6211 18.6407 63.7653 18.6582 63.9082 18.643C64.4622 18.6192 64.9876 18.3764 65.3805 17.9629V16.3932H64.366Z" fill="#231F20"/>
<path d="M70.1856 12.469H68.6653V19.6549H70.1856V16.5209H73.1005V19.6549H74.6082V12.469H73.1005V15.1441H70.1856V12.469Z" fill="#231F20"/>
<path d="M76.0359 16.2237C76.0228 15.7313 76.1022 15.2411 76.2691 14.7827C76.4361 14.3242 76.6873 13.9071 77.0074 13.5562C77.3276 13.2054 77.7102 12.9284 78.1322 12.7416C78.5542 12.5548 79.0068 12.4623 79.4628 12.4695C80.0738 12.4593 80.6767 12.6211 81.2124 12.9388V14.2423C80.7291 13.9144 80.1658 13.7509 79.5955 13.7731C79.3047 13.7731 79.0171 13.8392 78.7515 13.9671C78.4859 14.095 78.2481 14.2818 78.0535 14.5153C77.859 14.7488 77.712 15.0239 77.6222 15.3227C77.5324 15.6215 77.5017 15.9373 77.5322 16.2498C77.5322 17.8011 78.3165 18.6744 79.511 18.6744C80.0648 18.671 80.6072 18.5042 81.0797 18.1921L81.502 19.2741C80.8551 19.6975 80.1104 19.9145 79.3542 19.8998C78.9079 19.9196 78.4627 19.8371 78.0481 19.6576C77.6335 19.478 77.2588 19.2057 76.9487 18.8583C76.6386 18.511 76.4001 18.0966 76.249 17.6425C76.0979 17.1884 76.0376 16.7048 76.0721 16.2237H76.0359Z" fill="#231F20"/>
<path d="M84.2337 12.6521H82.6906V19.6549H84.2082V16.672H85.3177C85.5217 16.672 85.7258 16.8641 85.9681 17.3761L86.9246 19.6549H88.6335L87.3582 17.0048C87.1159 16.5056 86.8991 16.224 86.5292 16.1087C86.9318 15.871 87.0998 15.3538 87.2571 14.8697C87.354 14.5715 87.4468 14.286 87.5877 14.086C87.6455 14.0057 87.7225 13.9412 87.8117 13.8987C87.9009 13.8562 87.9993 13.8369 88.0978 13.8427C88.2205 13.8247 88.3451 13.8247 88.4677 13.8427V12.5626C88.2565 12.5007 88.0373 12.4705 87.8173 12.473C87.5669 12.4541 87.3162 12.5036 87.0917 12.6163C86.8671 12.729 86.6772 12.9007 86.542 13.1131C86.3343 13.4234 86.2052 13.8209 86.0814 14.2018C85.863 14.8738 85.6614 15.4942 85.0754 15.4942H84.2337V12.6521Z" fill="#231F20"/>
<path d="M89.822 12.469H91.2561V17.4781C91.4627 17.0979 91.7544 16.5996 92.1555 15.9832L94.3552 12.469H95.7649V19.6549H94.3552V14.6458C94.1607 14.9998 93.8569 15.5243 93.468 16.1407L91.2075 19.6549H89.822V12.469Z" fill="#231F20"/>
<path d="M99.7185 9H98.4549C98.4549 9.65347 98.7027 10.2801 99.1438 10.7422C99.5849 11.2043 100.183 11.4638 100.807 11.4638C101.431 11.4638 102.029 11.2043 102.47 10.7422C102.911 10.2801 103.159 9.65347 103.159 9H101.908C101.908 9.7208 101.645 10.3106 100.82 10.3106C99.9938 10.3106 99.7185 9.68148 99.7185 9Z" fill="#231F20"/>
<path d="M99.143 12.473H97.6667L97.6792 19.6549H99.1305L101.458 16.1426C101.87 15.5266 102.171 15.0024 102.371 14.6485C102.343 15.1505 102.343 15.6537 102.371 16.1557V19.6549H103.847V12.473H102.408L100.069 15.9853C99.6685 16.6013 99.3557 17.0993 99.143 17.4793V12.473Z" fill="#231F20"/>
<path d="M108.839 12.469H113.594L113.149 13.8721H110.334V19.6549H108.839V12.469Z" fill="#231F20"/>
<path fill-rule="evenodd" clip-rule="evenodd" d="M114.484 14.6182C114.336 15.0821 114.279 15.5738 114.319 16.0619C114.279 16.5501 114.336 17.0418 114.484 17.5057C114.633 17.9696 114.87 18.3957 115.182 18.7568C115.494 19.1179 115.873 19.4063 116.295 19.6036C116.717 19.8008 117.174 19.9027 117.635 19.9027C118.096 19.9027 118.552 19.8008 118.975 19.6036C119.397 19.4063 119.776 19.1179 120.088 18.7568C120.399 18.3957 120.637 17.9696 120.786 17.5057C120.934 17.0418 120.99 16.5501 120.95 16.0619C120.99 15.5738 120.934 15.0821 120.786 14.6182C120.637 14.1543 120.399 13.7282 120.088 13.3671C119.776 13.006 119.397 12.7176 118.975 12.5204C118.552 12.3231 118.096 12.2212 117.635 12.2212C117.174 12.2212 116.717 12.3231 116.295 12.5204C115.873 12.7176 115.494 13.006 115.182 13.3671C114.87 13.7282 114.633 14.1543 114.484 14.6182ZM117.647 13.595C118.777 13.595 119.411 14.624 119.411 16.0619C119.411 17.5131 118.79 18.5553 117.647 18.5553C116.505 18.5553 115.859 17.4999 115.859 16.0619C115.859 14.624 116.517 13.595 117.647 13.595Z" fill="#231F20"/>
<path d="M122.16 16.2172C122.147 15.7257 122.229 15.2364 122.403 14.7787C122.577 14.3211 122.839 13.9046 123.173 13.5545C123.506 13.2043 123.905 12.9277 124.345 12.7413C124.785 12.5548 125.256 12.4624 125.731 12.4696C126.368 12.4577 126.997 12.6192 127.555 12.9381V14.2394C127.062 13.8932 126.478 13.7115 125.882 13.7189C125.579 13.7169 125.278 13.7815 125 13.9085C124.723 14.0354 124.474 14.2219 124.271 14.4554C124.068 14.689 123.915 14.9644 123.822 15.2636C123.729 15.5628 123.698 15.8789 123.732 16.1912C123.732 17.7397 124.537 18.6116 125.794 18.6116C126.371 18.6049 126.935 18.4387 127.429 18.1301L127.857 19.2102C127.184 19.6653 126.397 19.9052 125.593 19.8998C125.128 19.9195 124.663 19.837 124.23 19.658C123.798 19.4789 123.407 19.2072 123.082 18.8607C122.758 18.5142 122.509 18.1008 122.35 17.6475C122.191 17.1942 122.126 16.7112 122.16 16.2303V16.2172Z" fill="#231F20"/>
<path d="M129.308 23.1235C130.519 23.1235 131.63 22.7494 132.639 19.9117L135.226 12.469H133.648L131.945 17.6286L129.8 12.469H128.159L131.264 19.5247C130.721 21.2274 130.065 21.7949 129.245 21.7949C128.893 21.7923 128.547 21.7039 128.235 21.5369L127.857 22.8268C128.314 23.0301 128.809 23.1312 129.308 23.1235Z" fill="#231F20"/>
<path fill-rule="evenodd" clip-rule="evenodd" d="M135.701 18.3326H136.138C137.123 17.0267 137.596 15.5379 138.12 12.469H142.073V18.3326H143.07V22.1327H141.674V19.6254H137.135V22.1327H135.726L135.701 18.3326ZM140.577 13.7749H139.205C139.019 15.372 138.527 16.9133 137.759 18.3064H140.577V13.7749Z" fill="#231F20"/>
<path fill-rule="evenodd" clip-rule="evenodd" d="M147.285 19.6607C147.623 19.5065 147.93 19.2818 148.187 18.9998L148.495 19.7269H149.726C149.613 19.0511 149.572 18.3636 149.603 17.6778V15.1131C149.603 13.3019 148.655 12.4691 146.992 12.4691C146.101 12.4658 145.225 12.7167 144.454 13.1962L144.959 14.2538C145.501 13.9002 146.123 13.7128 146.758 13.7117C147.558 13.7117 148.113 14.0819 148.113 15.0338V15.3378H146.881C146.288 15.328 145.7 15.4542 145.156 15.708C144.806 15.8783 144.512 16.1567 144.31 16.5076C144.108 16.8584 144.008 17.2657 144.023 17.6778C144.022 17.9808 144.08 18.2809 144.191 18.5594C144.303 18.8378 144.466 19.0888 144.672 19.2969C144.877 19.5049 145.12 19.6656 145.386 19.7691C145.651 19.8726 145.934 19.9168 146.215 19.8987C146.583 19.8959 146.946 19.8151 147.285 19.6607ZM145.994 16.5937C146.334 16.4272 146.704 16.3459 147.078 16.3558H148.088V17.9421C147.697 18.3602 147.174 18.6055 146.622 18.6296C146.479 18.6472 146.335 18.6311 146.199 18.5825C146.062 18.5338 145.938 18.4538 145.833 18.3481C145.729 18.2422 145.647 18.1133 145.594 17.9701C145.541 17.8269 145.517 17.673 145.526 17.5191C145.513 17.333 145.551 17.147 145.634 16.983C145.717 16.8191 145.842 16.684 145.994 16.5937Z" fill="#231F20"/>
<path fill-rule="evenodd" clip-rule="evenodd" d="M151.39 12.9455C152.195 12.6468 153.043 12.4927 153.897 12.4899C154.385 12.4339 154.878 12.491 155.341 12.6571C155.805 12.8232 156.227 13.0942 156.577 13.4504C156.928 13.8067 157.197 14.2393 157.367 14.717C157.536 15.1947 157.602 15.7055 157.558 16.2126C157.588 16.7064 157.518 17.2013 157.352 17.6652C157.186 18.1291 156.928 18.5514 156.595 18.905C156.261 19.2586 155.86 19.5353 155.417 19.7173C154.974 19.8993 154.499 19.9824 154.023 19.9613C153.646 19.9599 153.273 19.8895 152.92 19.7531V23.3717H151.416L151.39 12.9455ZM153.897 18.6076C155.264 18.6076 155.978 17.6444 155.978 16.1606C156.014 15.8511 155.984 15.5373 155.889 15.2416C155.794 14.9458 155.638 14.6756 155.43 14.4503C155.223 14.225 154.97 14.0502 154.69 13.9386C154.41 13.8269 154.109 13.7812 153.81 13.8046C153.5 13.8004 153.192 13.8443 152.895 13.9348V18.4124C153.207 18.5709 153.55 18.6512 153.897 18.6467V18.6076Z" fill="#231F20"/>
<path d="M158.775 14.7787C158.601 15.2363 158.518 15.7257 158.532 16.2172V16.2302C158.496 16.7105 158.559 17.1932 158.716 17.6466C158.873 18.0998 159.122 18.5135 159.445 18.8602C159.768 19.2069 160.159 19.4788 160.591 19.658C161.023 19.8372 161.486 19.9196 161.951 19.8998C162.758 19.9024 163.549 19.6629 164.227 19.2101L163.787 18.1301C163.299 18.4399 162.738 18.6064 162.165 18.6115C160.908 18.6115 160.091 17.7397 160.091 16.1912C160.059 15.8782 160.091 15.5618 160.186 15.2626C160.28 14.9634 160.434 14.6882 160.638 14.4549C160.842 14.2216 161.092 14.0354 161.37 13.9086C161.648 13.7818 161.949 13.7171 162.253 13.7189C162.849 13.7115 163.432 13.8932 163.925 14.2394V12.9381C163.368 12.6192 162.739 12.4577 162.102 12.4696C161.627 12.4624 161.156 12.5548 160.716 12.7413C160.276 12.9277 159.878 13.2043 159.544 13.5545C159.21 13.9046 158.949 14.3211 158.775 14.7787Z" fill="#231F20"/>
<path d="M145.457 29.8456C145.444 29.354 145.526 28.8646 145.7 28.407C145.874 27.9494 146.136 27.533 146.47 27.1828C146.803 26.8327 147.202 26.556 147.642 26.3696C148.081 26.1831 148.553 26.0908 149.028 26.098C149.665 26.086 150.293 26.2476 150.851 26.5664V27.8677C150.358 27.5215 149.774 27.3399 149.179 27.3472C148.875 27.3454 148.574 27.4101 148.295 27.5369C148.017 27.6637 147.768 27.8499 147.564 28.0832C147.36 28.3165 147.205 28.5917 147.111 28.8909C147.017 29.1902 146.985 29.5065 147.016 29.8195C147.016 31.368 147.834 32.2398 149.091 32.2398C149.664 32.2347 150.224 32.0683 150.713 31.7584L151.153 32.8384C150.475 33.2912 149.684 33.5307 148.877 33.5281C148.412 33.5479 147.948 33.4655 147.516 33.2863C147.084 33.1071 146.694 32.8352 146.371 32.4885C146.048 32.1418 145.799 31.7282 145.642 31.2749C145.484 30.8215 145.421 30.3388 145.457 29.8586V29.8456Z" fill="#231F20"/>
<path d="M164.94 13.8065H167.002V19.6549H168.47V13.8065H170.483L170.883 12.469H164.94V13.8065Z" fill="#231F20"/>
<path fill-rule="evenodd" clip-rule="evenodd" d="M172.134 12.469H174.743C176.777 12.469 177.427 13.4824 177.427 14.4037C177.437 14.7632 177.328 15.1153 177.119 15.399C176.909 15.6827 176.612 15.88 176.278 15.9567C176.638 16.0309 176.962 16.2364 177.193 16.5373C177.423 16.8382 177.546 17.215 177.539 17.6018C177.539 18.602 176.877 19.6549 174.805 19.6549H172.072L172.134 12.469ZM174.843 18.523C175.667 18.523 176.091 18.194 176.091 17.5491C176.091 16.9042 175.692 16.5752 174.955 16.5752H173.557V18.523H174.843ZM174.843 15.4829C175.567 15.4829 175.941 15.1802 175.941 14.5616C175.941 13.943 175.529 13.6535 174.693 13.6535H173.52V15.5092L174.843 15.4829Z" fill="#231F20"/>
<path fill-rule="evenodd" clip-rule="evenodd" d="M180.176 17.3863C180.077 17.1273 180.031 16.8498 180.042 16.5715H184.433V16.1962C184.433 13.9055 183.348 12.469 181.502 12.469C179.656 12.469 178.508 14.0349 178.508 16.1703C178.459 16.6569 178.511 17.1487 178.663 17.612C178.815 18.0752 179.062 18.4986 179.387 18.8531C179.712 19.2076 180.107 19.4845 180.546 19.6648C180.984 19.8452 181.455 19.9246 181.926 19.8975C182.743 19.9045 183.546 19.676 184.246 19.2375L183.797 18.1633C183.274 18.4792 182.68 18.6445 182.075 18.6421C181.807 18.6586 181.539 18.6167 181.288 18.519C181.036 18.4213 180.808 18.27 180.616 18.0749C180.424 17.8798 180.274 17.6453 180.176 17.3863ZM181.489 13.6855C182.45 13.6855 182.899 14.5655 182.899 15.4715H180.03C180.007 15.2538 180.028 15.0337 180.09 14.8245C180.152 14.6153 180.255 14.4213 180.391 14.2544C180.527 14.0874 180.695 13.9509 180.884 13.8531C181.073 13.7553 181.279 13.6983 181.489 13.6855Z" fill="#231F20"/>
<path d="M186.097 12.469H187.556V15.1441H190.343V12.469H191.802V19.6549H190.343V16.5209H187.556V19.6549H186.097V12.469Z" fill="#231F20"/>
<path d="M195.224 12.469H193.704V19.6549H195.224V16.5209H198.139V19.6549H199.647V12.469H198.139V15.1441H195.224V12.469Z" fill="#231F20"/>
<path d="M207.416 12.469H208.918V19.6287H207.416V12.469Z" fill="#231F20"/>
<path fill-rule="evenodd" clip-rule="evenodd" d="M201.311 12.469H202.85V15.082C203.104 15.063 203.359 15.063 203.613 15.082C205.802 15.082 206.528 16.1403 206.528 17.3423C206.528 18.5444 205.84 19.6549 203.588 19.6549H201.336L201.311 12.469ZM203.525 18.4006C204.776 18.4006 204.989 17.9303 204.989 17.3423C204.989 16.7544 204.701 16.2971 203.525 16.2971C203.292 16.2781 203.058 16.2781 202.825 16.2971V18.3484L203.525 18.4006Z" fill="#231F20"/>
<path d="M212.855 9H211.606C211.606 9.65347 211.853 10.2801 212.294 10.7422C212.734 11.2043 213.331 11.4638 213.953 11.4638C214.576 11.4638 215.173 11.2043 215.613 10.7422C216.053 10.2801 216.301 9.65347 216.301 9H215.052C215.052 9.7208 214.79 10.3106 213.966 10.3106C213.142 10.3106 212.855 9.68148 212.855 9Z" fill="#231F20"/>
<path d="M212.293 12.473H210.819V19.6549H212.268L214.603 16.1426C214.912 15.6658 215.161 15.2439 215.357 14.9134C215.414 14.8171 215.466 14.7285 215.514 14.6485V19.6549H217V12.473H215.552L213.217 15.9853C212.817 16.6013 212.505 17.0993 212.293 17.4793V12.473Z" fill="#231F20"/>
<path fill-rule="evenodd" clip-rule="evenodd" d="M42.1653 32.6514C41.9096 32.9272 41.6049 33.1465 41.2687 33.2967C40.9324 33.4468 40.5715 33.5248 40.2066 33.5261C39.9174 33.5465 39.6273 33.5022 39.3552 33.3961C39.0831 33.29 38.835 33.1245 38.6271 32.9104C38.4192 32.6962 38.2561 32.4381 38.1484 32.1528C38.0406 31.8676 37.9906 31.5615 38.0016 31.2545C37.986 30.8491 38.0857 30.4481 38.2878 30.1036C38.4899 29.759 38.785 29.4868 39.1349 29.3222C39.6759 29.0611 40.2652 28.9317 40.8595 28.9436H42.0914V28.6303C42.0914 27.6903 41.5371 27.3247 40.7364 27.3247C40.1046 27.333 39.4854 27.5128 38.9378 27.8469L38.4327 26.8025C39.2051 26.3341 40.0806 26.0909 40.9704 26.0975C42.6335 26.0975 43.582 26.9069 43.582 28.7086V31.4634C43.5499 32.1407 43.5912 32.8197 43.7052 33.487H42.4733L42.1653 32.6514ZM41.0566 30.0403C40.6815 30.0271 40.3092 30.1123 39.9726 30.2884C39.8215 30.3754 39.697 30.5065 39.6141 30.6661C39.5311 30.8258 39.4931 31.0073 39.5045 31.1892C39.4966 31.3417 39.52 31.494 39.5731 31.636C39.6261 31.7779 39.7075 31.9061 39.8117 32.0115C39.9158 32.117 40.0403 32.1972 40.1765 32.2468C40.3128 32.2965 40.4575 32.3142 40.6009 32.2989C41.1525 32.2751 41.6756 32.0328 42.0668 31.6201V30.0011L41.0566 30.0403Z" fill="#231F20"/>
<path d="M50.1235 26.3451H45.3692V33.531H46.8634V27.7351H49.679L50.1235 26.3451Z" fill="#231F20"/>
<path fill-rule="evenodd" clip-rule="evenodd" d="M51.3121 26.5608C52.1188 26.2718 52.9658 26.1223 53.8191 26.1182C54.3065 26.0622 54.7997 26.1193 55.2631 26.2854C55.7266 26.4515 56.1487 26.7225 56.499 27.0788C56.8493 27.435 57.1189 27.8676 57.2885 28.3453C57.4581 28.823 57.5233 29.3338 57.4794 29.841C57.5079 30.3337 57.4365 30.8271 57.2698 31.2895C57.1031 31.7518 56.8448 32.1726 56.5116 32.5246C56.1784 32.8768 55.7778 33.1523 55.3356 33.3336C54.8934 33.5148 54.4195 33.5976 53.9445 33.5766C53.5691 33.5733 53.1967 33.5073 52.8414 33.3814V37H51.3372L51.3121 26.5608ZM53.8191 32.262C55.1855 32.262 55.9 31.2988 55.9 29.8279C55.9442 29.5145 55.9199 29.1948 55.8289 28.8925C55.7378 28.5902 55.5823 28.3131 55.374 28.0818C55.1657 27.8504 54.9098 27.6708 54.6254 27.5562C54.3411 27.4416 54.0355 27.395 53.7314 27.4199C53.4213 27.4209 53.113 27.4691 52.8163 27.5631V32.0407C53.1313 32.1888 53.4734 32.2643 53.8191 32.262Z" fill="#231F20"/>
<path fill-rule="evenodd" clip-rule="evenodd" d="M61.7063 33.2981C62.0446 33.148 62.3515 32.9281 62.609 32.6514L62.917 33.4869H64.1487C64.0348 32.8196 63.9935 32.1406 64.0256 31.4633V28.7086C64.0256 26.9069 63.0771 26.0975 61.4142 26.0975C60.5243 26.0897 59.6485 26.333 58.8767 26.8025L59.3817 27.847C59.9275 27.5083 60.5478 27.3282 61.1801 27.3247C61.9808 27.3247 62.5351 27.6903 62.5351 28.6303V28.9436H61.3033C60.709 28.9317 60.1197 29.0611 59.5788 29.3222C59.2289 29.4868 58.9338 29.759 58.7317 30.1036C58.5297 30.4481 58.43 30.8491 58.4456 31.2544C58.4328 31.5608 58.4812 31.8667 58.5875 32.1519C58.6938 32.4372 58.8558 32.6954 59.0627 32.9098C59.2696 33.1242 59.5169 33.2899 59.7884 33.3961C60.0599 33.5023 60.3494 33.5466 60.6381 33.5261C61.0049 33.5258 61.368 33.4483 61.7063 33.2981ZM60.4164 30.2883C60.753 30.1123 61.1253 30.0271 61.5004 30.0403L62.5105 30.0011V31.62C62.1193 32.0328 61.5962 32.275 61.0446 32.2989C60.9009 32.3165 60.7552 32.3003 60.618 32.2516C60.4808 32.2028 60.3555 32.1226 60.2508 32.0167C60.1462 31.9107 60.0648 31.7817 60.0125 31.6387C59.9603 31.4956 59.9383 31.3422 59.9484 31.1892C59.9369 31.0073 59.9749 30.8258 60.0579 30.6661C60.1409 30.5064 60.2653 30.3753 60.4164 30.2883Z" fill="#231F20"/>
<path fill-rule="evenodd" clip-rule="evenodd" d="M65.8505 26.5544C66.6606 26.2653 67.5111 26.1157 68.368 26.1116C68.8524 26.0658 69.3406 26.1306 69.7981 26.3015C70.2557 26.4723 70.6714 26.7449 71.0159 27.1002C71.3605 27.4555 71.6255 27.8847 71.7921 28.3575C71.9588 28.8303 72.0232 29.3352 71.9806 29.8366C72.0092 30.3296 71.9375 30.8234 71.7701 31.2859C71.6027 31.7485 71.3433 32.1696 71.0087 32.5219C70.6742 32.8742 70.2718 33.15 69.8278 33.3313C69.3838 33.5126 68.9079 33.5955 68.4309 33.5746C68.054 33.5712 67.68 33.5052 67.3233 33.3792V37H65.8128L65.8505 26.5544ZM68.368 32.2591C69.74 32.2591 70.4575 31.2953 70.4575 29.8235C70.502 29.51 70.4776 29.19 70.3861 28.8876C70.2947 28.5851 70.1385 28.3078 69.9293 28.0763C69.7201 27.8449 69.4632 27.6651 69.1777 27.5504C68.8921 27.4358 68.5853 27.3892 68.2799 27.414C67.9685 27.415 67.6589 27.4633 67.361 27.5573V32.0377C67.6773 32.1859 68.0208 32.2614 68.368 32.2591Z" fill="#231F20"/>
<path d="M74.9399 26.3451H73.4197V33.531H74.9399V30.397H77.8423V33.531H79.3626V26.3451H77.8423V29.007H74.9399V26.3451Z" fill="#231F20"/>
<path d="M87.1196 26.3582H88.6335V33.5179H87.1196V26.3582Z" fill="#231F20"/>
<path fill-rule="evenodd" clip-rule="evenodd" d="M81.0266 26.3451H82.5279V28.9629H83.2911C85.4806 28.9629 86.2063 30.0231 86.2063 31.2143C86.2063 32.4053 85.5306 33.531 83.2661 33.531H81.0266V26.3451ZM83.2411 32.2875C84.4922 32.2875 84.7049 31.8163 84.7049 31.2273C84.7049 30.6383 84.4171 30.1802 83.2411 30.1802H82.5279V32.2875H83.2411Z" fill="#231F20"/>
<path d="M92.5829 22.8761H91.3093C91.3527 23.4857 91.6195 24.0559 92.0561 24.4721C92.4927 24.8882 93.0668 25.1196 93.663 25.1196C94.2591 25.1196 94.8332 24.8882 95.2699 24.4721C95.7065 24.0559 95.9732 23.4857 96.0166 22.8761H94.768C94.768 23.5673 94.5058 24.1562 93.6817 24.1562C92.8576 24.1562 92.5829 23.5417 92.5829 22.8761Z" fill="#231F20"/>
<path d="M92.0085 26.2811H90.5352L90.5602 33.2832H91.9836L94.3185 29.8653C94.718 29.251 95.0302 28.7517 95.23 28.3933C95.2023 28.8878 95.2023 29.3836 95.23 29.8782V33.2832H96.7158V26.2811H95.2674L92.945 29.699C92.533 30.3134 92.2333 30.7998 92.0085 31.1711V26.2811Z" fill="#231F20"/>
<path d="M105.293 33.7878C104.286 36.6255 103.177 36.9996 101.968 36.9996C101.47 37.0073 100.976 36.9062 100.519 36.7029L100.897 35.413C101.212 35.5683 101.556 35.6519 101.905 35.6581C102.724 35.6581 103.379 35.0905 103.92 33.3879L100.834 26.3451H102.459L104.613 31.5692L106.314 26.3451H107.888L105.293 33.7878Z" fill="#231F20"/>
<path d="M110.524 26.3451H109.077V33.531H110.524V30.397H113.323V33.531H114.782V26.3451H113.323V29.007H110.524V26.3451Z" fill="#231F20"/>
<path d="M116.733 26.3451H118.204V31.1904C118.427 30.8226 118.724 30.3405 119.119 29.7317L121.431 26.3451H122.865V33.2832H121.406V28.438C121.196 28.7931 120.899 29.2878 120.504 29.8966L118.118 33.2832H116.684L116.733 26.3451Z" fill="#231F20"/>
<path fill-rule="evenodd" clip-rule="evenodd" d="M127.193 26.3451H124.591L124.529 33.2832H127.268C129.333 33.2832 129.996 32.2648 129.996 31.2973C130 30.9271 129.878 30.567 129.649 30.2789C129.421 29.9908 129.101 29.7927 128.745 29.7187C129.078 29.6423 129.374 29.4508 129.584 29.177C129.794 28.9031 129.904 28.5637 129.896 28.2165C129.896 27.3126 129.245 26.3451 127.193 26.3451ZM128.62 31.2463C128.62 31.8828 128.194 32.1884 127.369 32.1884H126.092V30.3043H127.494C128.232 30.3043 128.62 30.6098 128.62 31.2463ZM128.394 28.3565C128.394 28.9676 128.019 29.2604 127.294 29.2604H125.98V27.4654H127.143C128.094 27.4654 128.394 27.7455 128.394 28.3565Z" fill="#231F20"/>
<path fill-rule="evenodd" clip-rule="evenodd" d="M132.737 30.207C132.726 30.4857 132.771 30.7637 132.87 31.0232C132.969 31.2826 133.119 31.5176 133.311 31.713C133.502 31.9084 133.731 32.06 133.982 32.1579C134.234 32.2557 134.502 32.2977 134.77 32.2812C135.374 32.2799 135.968 32.1145 136.491 31.8015L136.94 32.8646C136.239 33.3101 135.43 33.5394 134.608 33.5258C134.139 33.5529 133.669 33.4737 133.233 33.2938C132.796 33.1138 132.402 32.8373 132.078 32.4834C131.754 32.1295 131.508 31.7067 131.357 31.2443C131.206 30.7818 131.153 30.2907 131.203 29.8051C131.203 27.653 132.338 26.0973 134.196 26.0973C136.055 26.0973 137.127 27.5363 137.127 29.831V30.207H132.737ZM135.593 29.092C135.593 28.1976 135.144 27.303 134.171 27.303C133.961 27.3176 133.756 27.3758 133.568 27.4744C133.38 27.5729 133.213 27.7097 133.077 27.8765C132.941 28.0433 132.839 28.2369 132.776 28.4458C132.713 28.6545 132.691 28.8743 132.712 29.092H135.593Z" fill="#231F20"/>
<path fill-rule="evenodd" clip-rule="evenodd" d="M141.065 26.1185C140.211 26.1251 139.363 26.2745 138.554 26.561L138.566 37H140.086V33.3815C140.442 33.5074 140.815 33.5733 141.191 33.5768C141.666 33.5978 142.141 33.515 142.583 33.3337C143.025 33.1523 143.426 32.8765 143.759 32.5242C144.092 32.1719 144.349 31.7509 144.515 31.2887C144.68 30.8264 144.75 30.3331 144.72 29.8411C144.766 29.3347 144.702 28.824 144.534 28.3463C144.366 27.8685 144.097 27.4356 143.747 27.0791C143.397 26.7226 142.974 26.4514 142.511 26.2852C142.047 26.119 141.553 26.0621 141.065 26.1185ZM143.15 29.8281C143.15 31.2989 142.434 32.2621 141.065 32.2621C140.719 32.2657 140.376 32.1901 140.061 32.0408V27.5633C140.358 27.4674 140.667 27.4191 140.978 27.4201C141.282 27.3952 141.588 27.4418 141.873 27.5564C142.158 27.671 142.414 27.8506 142.623 28.0819C142.832 28.3133 142.988 28.5904 143.079 28.8927C143.17 29.195 143.194 29.5147 143.15 29.8281Z" fill="#231F20"/>
<path d="M152.592 26.3451H154.065V31.1904C154.277 30.8226 154.589 30.3405 154.989 29.7317L157.324 26.3451H158.76V33.2832H157.261V29.9093C157.234 29.4192 157.234 28.928 157.261 28.438C157.062 28.7931 156.762 29.2878 156.35 29.8966L154.027 33.2832H152.579L152.592 26.3451Z" fill="#231F20"/>
<path d="M159.948 27.6696H162.092V33.531H163.619V27.6696H165.7L166.129 26.3451H159.948V27.6696Z" fill="#231F20"/>
<path fill-rule="evenodd" clip-rule="evenodd" d="M168.393 30.207C168.382 30.4858 168.428 30.7638 168.527 31.0232C168.625 31.2827 168.775 31.5176 168.967 31.7131C169.159 31.9086 169.388 32.0601 169.639 32.1579C169.89 32.2558 170.159 32.2978 170.427 32.2813C171.032 32.2837 171.626 32.1181 172.149 31.8016L172.598 32.8647C171.9 33.3098 171.095 33.5392 170.277 33.5259C169.807 33.5527 169.338 33.4735 168.9 33.2936C168.463 33.1137 168.068 32.8375 167.743 32.4839C167.418 32.1302 167.171 31.7077 167.018 31.2452C166.865 30.7828 166.811 30.2915 166.859 29.8051C166.859 27.653 168.006 26.0973 169.853 26.0973C171.699 26.0973 172.785 27.5364 172.785 29.831V30.207H168.393ZM171.25 29.0921C171.25 28.1976 170.801 27.303 169.84 27.303C169.63 27.3158 169.424 27.3729 169.235 27.4709C169.046 27.5688 168.878 27.7055 168.742 27.8728C168.606 28.0401 168.503 28.2344 168.441 28.4439C168.379 28.6536 168.358 28.874 168.381 29.0921H171.25Z" fill="#231F20"/>
<path d="M173.736 27.6696H175.798V33.531H177.265V27.6696H179.266L179.679 26.3451H173.736V27.6696Z" fill="#231F20"/>
<path fill-rule="evenodd" clip-rule="evenodd" d="M13.0303 35.6735L4.05308 26.9732H4.04042L3.79984 26.7397C1.36659 24.3737 0 21.1674 0 17.8245C0 14.4815 1.36659 11.2752 3.79984 8.90914L13.005 0L22.7546 9.48671C24.8614 11.8117 26.0162 14.8061 25.9998 17.9022C25.9835 20.9984 24.7972 23.9812 22.6659 26.2851L22.1215 26.8258L13.0303 35.6735ZM12.9923 5.16115L6.47148 11.502L6.44616 11.416C5.58813 12.2457 4.90802 13.2321 4.44511 14.3183C3.98219 15.4046 3.74567 16.5691 3.7492 17.7446C3.74712 18.1554 3.77249 18.5659 3.82517 18.9734L15.5247 7.61884L12.9923 5.16115ZM20.6278 12.792L7.76299 25.3757L6.6994 24.3558L6.47148 24.1469C6.04677 23.7216 5.66123 23.2611 5.31926 22.7706L18.2343 10.2363L19.5005 11.4652C19.9251 11.8661 20.3031 12.3111 20.6278 12.792ZM13.005 30.4877L19.5258 24.1469C20.5283 23.1819 21.2893 22.0064 21.7503 20.7112C22.2113 19.4159 22.3599 18.0353 22.1848 16.6755L10.4726 28.03L13.005 30.4877Z" fill="#23873C"/>
<path d="M22.7041 31.3838C24.1419 29.8019 25.1561 27.8927 25.6548 25.8286H25.7929C26.1437 27.7319 26.0478 29.6888 25.5125 31.5501C24.9772 33.4113 24.0166 35.1278 22.7041 36.5686L22.1641 37.1118L13.1487 46L4.00768 37.0254C2.54134 35.5759 1.45171 33.8005 0.830994 31.8494C0.210277 29.8983 0.0767394 27.8289 0.441682 25.8163H0.592358C1.13456 28.0992 2.31792 30.1865 4.00768 31.8406C4.08075 31.9248 4.16052 32.0033 4.24625 32.0751L13.1487 40.8276L22.1641 31.9393L22.7041 31.3838Z" fill="#23873C"/>
</svg>
