<svg width="197" height="49" viewBox="0 0 197 49" fill="none" xmlns="http://www.w3.org/2000/svg">
<path d="M44.666 37.3423V11.2271H50.1777V37.3053H44.666V37.3423ZM61.654 37.3423L49.6869 24.155L61.2388 11.2641H67.6942L54.9721 25.3404L55.2363 22.7104L68.5625 37.3423H61.654Z" fill="black"/>
<path d="M76.6038 37.7868C76.0753 37.7868 75.5845 37.7498 75.1315 37.7127C74.6785 37.6757 74.2632 37.5646 73.8479 37.4164V32.9342C74.6407 33.1935 75.4335 33.3046 76.2263 33.3046C76.868 33.3046 77.4343 33.2305 77.9251 33.0083C78.4158 32.786 78.9066 32.5267 79.3218 32.1193C79.7371 31.7118 80.1146 31.1932 80.4544 30.5264L81.5492 28.3409L81.4737 31.4525L69.6953 11.2271H75.66L83.2102 24.8218H83.399L89.8544 11.2271H95.5171L86.0793 30.4523C85.1733 32.2304 84.305 33.6751 83.4367 34.7123C82.5307 35.7865 81.5492 36.5274 80.4544 37.0089C79.3596 37.5275 78.0761 37.7868 76.6038 37.7868Z" fill="black"/>
<path d="M98.1973 37.3423V11.2271H118.507V15.7092H103.709V32.8601H110.051C111.712 32.8601 112.996 32.5638 113.826 31.934C114.657 31.3043 115.11 30.3782 115.11 29.1188C115.11 27.8593 114.695 26.9333 113.864 26.3035C113.033 25.6738 111.75 25.3774 110.051 25.3774H101.066V20.8953H110.429C112.769 20.8953 114.695 21.1916 116.28 21.8213C117.866 22.4511 119.036 23.3771 119.829 24.5625C120.621 25.7849 121.037 27.2666 121.037 29.0817C121.037 31.7488 120.131 33.7862 118.356 35.1938C116.582 36.6015 113.939 37.2682 110.466 37.2682L98.1973 37.3423Z" fill="black"/>
<path d="M125.755 37.3423V11.2271H145.876V15.8945H131.267V37.3053H125.755V37.3423Z" fill="black"/>
<path d="M143.574 37.3424L154.371 11.2642H161.279L172.076 37.3424H166.225L157.882 16.4502H157.693L149.312 37.3053H143.574V37.3424ZM148.595 32.4898L150.332 28.0076H165.13L166.867 32.4898H148.595Z" fill="black"/>
<path d="M177.437 37.7868C176.908 37.7868 176.417 37.7498 175.964 37.7127C175.511 37.6757 175.096 37.5646 174.681 37.4164V32.9342C175.474 33.1935 176.266 33.3046 177.059 33.3046C177.701 33.3046 178.267 33.2305 178.758 33.0083C179.249 32.786 179.74 32.5267 180.155 32.1193C180.57 31.7118 180.948 31.1932 181.287 30.5264L182.382 28.3409L182.307 31.4525L170.528 11.2271H176.493L184.043 24.8218H184.232L190.687 11.2271H196.35L186.912 30.4523C186.044 32.2304 185.138 33.6751 184.27 34.7123C183.401 35.7865 182.382 36.5274 181.325 37.0089C180.193 37.5275 178.909 37.7868 177.437 37.7868Z" fill="black"/>
<path d="M0.648438 36.3423V43.7509C4.3103 43.7509 10.426 44.6399 13.2573 48.7517V40.0836C9.59546 37.4906 5.14082 36.4164 0.648438 36.3423Z" fill="url(#paint0_radial_155_1650)"/>
<path d="M13.2578 40.0836V48.7517C16.6932 44.8622 21.1478 43.7509 26.0177 43.7509V36.3423C21.4876 36.4164 16.8819 37.4906 13.2578 40.0836Z" fill="url(#paint1_radial_155_1650)"/>
<path d="M13.3338 0.299316L4.198 9.22666C-0.105633 13.4496 -0.520896 20.1173 3.06546 24.7847C2.76345 22.2658 3.59398 19.7839 5.36828 17.9317L5.67029 17.6354L18.3547 5.18898L13.3338 0.299316Z" fill="url(#paint2_radial_155_1650)"/>
<path d="M22.5074 9.30061L19.6383 6.48535L6.99167 18.9318C4.19809 21.673 4.19809 26.0811 6.99167 28.7852L9.4455 31.193C9.06798 28.5629 9.93626 25.8588 11.8993 23.9696L12.0126 23.8585L24.3949 11.7084C23.8664 10.8564 23.2624 10.0415 22.5074 9.30061Z" fill="url(#paint3_radial_155_1650)"/>
<path d="M13.3335 25.1548C10.5399 27.896 10.5399 32.3041 13.3335 35.0082L22.4692 26.0438C25.9423 22.6359 26.8484 17.6721 25.2628 13.4492L13.3335 25.1548Z" fill="url(#paint4_radial_155_1650)"/>
<defs>
<radialGradient id="paint0_radial_155_1650" cx="0" cy="0" r="1" gradientUnits="userSpaceOnUse" gradientTransform="translate(17.4559 30.9147) scale(42.5344 41.7364)">
<stop stop-color="#EBFF00"/>
<stop offset="1" stop-color="#008900"/>
</radialGradient>
<radialGradient id="paint1_radial_155_1650" cx="0" cy="0" r="1" gradientUnits="userSpaceOnUse" gradientTransform="translate(31.5251 35.5532) scale(36.8527 36.1613)">
<stop stop-color="#EBFF00"/>
<stop offset="1" stop-color="#008900"/>
</radialGradient>
<radialGradient id="paint2_radial_155_1650" cx="0" cy="0" r="1" gradientUnits="userSpaceOnUse" gradientTransform="translate(13.5062 -2.39171) scale(34.5738 33.9252)">
<stop stop-color="#EBFF00"/>
<stop offset="1" stop-color="#008900"/>
</radialGradient>
<radialGradient id="paint3_radial_155_1650" cx="0" cy="0" r="1" gradientUnits="userSpaceOnUse" gradientTransform="translate(22.7303 1.09772) scale(37.9666 37.2543)">
<stop stop-color="#EBFF00"/>
<stop offset="1" stop-color="#008900"/>
</radialGradient>
<radialGradient id="paint4_radial_155_1650" cx="0" cy="0" r="1" gradientUnits="userSpaceOnUse" gradientTransform="translate(37.6218 24.6519) scale(34.68 34.0294)">
<stop stop-color="#EBFF00"/>
<stop offset="1" stop-color="#008900"/>
</radialGradient>
</defs>
</svg>
