<svg width="1853" height="927" viewBox="0 0 1853 927" fill="none" xmlns="http://www.w3.org/2000/svg">
<path d="M1853 0.499756C1853 122.17 1829.04 242.648 1782.47 355.056C1735.91 467.464 1667.67 569.601 1581.63 655.634C1495.6 741.668 1393.46 809.913 1281.06 856.474C1168.65 903.035 1048.17 927 926.5 927C804.83 927 684.352 903.035 571.943 856.474C459.535 809.913 357.399 741.667 271.365 655.634C185.332 569.6 117.086 467.464 70.5254 355.055C23.9645 242.647 -9.76614e-05 122.169 2.98496e-10 0.499023L503.255 0.49939C503.255 56.0807 514.203 111.118 535.473 162.468C556.743 213.819 587.919 260.477 627.221 299.779C666.523 339.081 713.181 370.257 764.531 391.527C815.882 412.797 870.919 423.744 926.5 423.744C982.081 423.744 1037.12 412.797 1088.47 391.527C1139.82 370.257 1186.48 339.081 1225.78 299.779C1265.08 260.477 1296.26 213.819 1317.53 162.469C1338.8 111.118 1349.74 56.081 1349.74 0.499756H1853Z" fill="url(#paint0_linear_155_1632)"/>
<defs>
<linearGradient id="paint0_linear_155_1632" x1="552.663" y1="980.405" x2="1269.59" y2="-672.73" gradientUnits="userSpaceOnUse">
<stop stop-color="#FF850B"/>
<stop offset="1" stop-color="#FFFF40"/>
</linearGradient>
</defs>
</svg>
